<svg width="800" height="256" viewBox="0 0 800 256" xmlns="http://www.w3.org/2000/svg" font-family="ui-monospace,SFMono-Regular,Menlo,Consolas,'Liberation Mono',monospace">
  <rect x="0.5" y="0.5" width="799" height="255" rx="10" fill="#161b22" stroke="#30363d"/>
  <text x="400" y="44" text-anchor="middle" font-size="11" letter-spacing="2" fill="#8b949e">LANGUAGES &amp; FRAMEWORKS</text>
  <rect x="54.5" y="58" width="65" height="26" rx="6" fill="#0d1117" stroke="#30363d"/>
  <text x="87.0" y="75" text-anchor="middle" font-size="12" fill="#34d399">Python</text>
  <rect x="127.5" y="58" width="94" height="26" rx="6" fill="#0d1117" stroke="#30363d"/>
  <text x="174.5" y="75" text-anchor="middle" font-size="12" fill="#34d399">TypeScript</text>
  <rect x="229.5" y="58" width="94" height="26" rx="6" fill="#0d1117" stroke="#30363d"/>
  <text x="276.5" y="75" text-anchor="middle" font-size="12" fill="#34d399">JavaScript</text>
  <rect x="331.5" y="58" width="58" height="26" rx="6" fill="#0d1117" stroke="#30363d"/>
  <text x="360.5" y="75" text-anchor="middle" font-size="12" fill="#34d399">React</text>
  <rect x="397.5" y="58" width="72" height="26" rx="6" fill="#0d1117" stroke="#30363d"/>
  <text x="433.5" y="75" text-anchor="middle" font-size="12" fill="#34d399">Next.js</text>
  <rect x="477.5" y="58" width="72" height="26" rx="6" fill="#0d1117" stroke="#30363d"/>
  <text x="513.5" y="75" text-anchor="middle" font-size="12" fill="#34d399">Node.js</text>
  <rect x="557.5" y="58" width="72" height="26" rx="6" fill="#0d1117" stroke="#30363d"/>
  <text x="593.5" y="75" text-anchor="middle" font-size="12" fill="#34d399">FastAPI</text>
  <rect x="637.5" y="58" width="108" height="26" rx="6" fill="#0d1117" stroke="#30363d"/>
  <text x="691.5" y="75" text-anchor="middle" font-size="12" fill="#34d399">Tailwind CSS</text>
  <text x="400" y="118" text-anchor="middle" font-size="11" letter-spacing="2" fill="#8b949e">DATA &amp; ANALYTICS</text>
  <rect x="64.5" y="132" width="65" height="26" rx="6" fill="#0d1117" stroke="#30363d"/>
  <text x="97.0" y="149" text-anchor="middle" font-size="12" fill="#34d399">Pandas</text>
  <rect x="137.5" y="132" width="58" height="26" rx="6" fill="#0d1117" stroke="#30363d"/>
  <text x="166.5" y="149" text-anchor="middle" font-size="12" fill="#34d399">NumPy</text>
  <rect x="203.5" y="132" width="65" height="26" rx="6" fill="#0d1117" stroke="#30363d"/>
  <text x="236.0" y="149" text-anchor="middle" font-size="12" fill="#34d399">Plotly</text>
  <rect x="276.5" y="132" width="108" height="26" rx="6" fill="#0d1117" stroke="#30363d"/>
  <text x="330.5" y="149" text-anchor="middle" font-size="12" fill="#34d399">scikit-learn</text>
  <rect x="392.5" y="132" width="80" height="26" rx="6" fill="#0d1117" stroke="#30363d"/>
  <text x="432.5" y="149" text-anchor="middle" font-size="12" fill="#34d399">BigQuery</text>
  <rect x="480.5" y="132" width="72" height="26" rx="6" fill="#0d1117" stroke="#30363d"/>
  <text x="516.5" y="149" text-anchor="middle" font-size="12" fill="#34d399">Airflow</text>
  <rect x="560.5" y="132" width="87" height="26" rx="6" fill="#0d1117" stroke="#30363d"/>
  <text x="604.0" y="149" text-anchor="middle" font-size="12" fill="#34d399">Snowflake</text>
  <rect x="655.5" y="132" width="80" height="26" rx="6" fill="#0d1117" stroke="#30363d"/>
  <text x="695.5" y="149" text-anchor="middle" font-size="12" fill="#34d399">Power BI</text>
  <text x="400" y="192" text-anchor="middle" font-size="11" letter-spacing="2" fill="#8b949e">CLOUD &amp; TOOLS</text>
  <rect x="90.5" y="206" width="108" height="26" rx="6" fill="#0d1117" stroke="#30363d"/>
  <text x="144.5" y="223" text-anchor="middle" font-size="12" fill="#34d399">Google Cloud</text>
  <rect x="206.5" y="206" width="94" height="26" rx="6" fill="#0d1117" stroke="#30363d"/>
  <text x="253.5" y="223" text-anchor="middle" font-size="12" fill="#34d399">PostgreSQL</text>
  <rect x="308.5" y="206" width="72" height="26" rx="6" fill="#0d1117" stroke="#30363d"/>
  <text x="344.5" y="223" text-anchor="middle" font-size="12" fill="#34d399">MongoDB</text>
  <rect x="388.5" y="206" width="65" height="26" rx="6" fill="#0d1117" stroke="#30363d"/>
  <text x="421.0" y="223" text-anchor="middle" font-size="12" fill="#34d399">Docker</text>
  <rect x="461.5" y="206" width="44" height="26" rx="6" fill="#0d1117" stroke="#30363d"/>
  <text x="483.5" y="223" text-anchor="middle" font-size="12" fill="#34d399">Git</text>
  <rect x="513.5" y="206" width="123" height="26" rx="6" fill="#0d1117" stroke="#30363d"/>
  <text x="575.0" y="223" text-anchor="middle" font-size="12" fill="#34d399">GitHub Actions</text>
  <rect x="644.5" y="206" width="65" height="26" rx="6" fill="#0d1117" stroke="#30363d"/>
  <text x="677.0" y="223" text-anchor="middle" font-size="12" fill="#34d399">Vercel</text>
</svg>
