<svg xmlns="http://www.w3.org/2000/svg" width="1000" height="338" viewBox="0 0 1000 338" role="img" aria-label="Tech stack" font-family="ui-monospace,SFMono-Regular,Menlo,Consolas,'Liberation Mono','DejaVu Sans Mono',monospace">
<title>Tech stack</title>
<defs></defs>
<style>
.fade{animation:fade .9s ease-out}
@keyframes fade{from{opacity:0}}
/* Chips settle in with a short stagger; resting state is in place and opaque. */
.chip{transform-box:fill-box;transform-origin:center;animation:pop .5s cubic-bezier(.2,.8,.2,1)}
@keyframes pop{from{transform:scale(.9);opacity:0}}
@media (prefers-reduced-motion: reduce){*{animation:none!important}}</style>
<rect x="0.5" y="0.5" width="999" height="337" rx="10" fill="#161b22" stroke="#30363d"/><g><text x="500" y="34" font-size="10.5" fill="#6b7280" text-anchor="middle" letter-spacing="2.4">CORE — DAILY</text><g class="chip" style="animation-delay:0s"><rect x="92.3" y="52" width="74.8" height="28" rx="6" fill="rgba(16,185,129,0.22)" stroke="#10b981"/><text x="129.7" y="70.68" font-size="13" fill="#a7f3d0" text-anchor="middle">Python</text></g><g class="chip" style="animation-delay:0.04s"><rect x="176.1" y="52" width="51.4" height="28" rx="6" fill="rgba(16,185,129,0.22)" stroke="#10b981"/><text x="201.8" y="70.68" font-size="13" fill="#a7f3d0" text-anchor="middle">SQL</text></g><g class="chip" style="animation-delay:0.07s"><rect x="236.5" y="52" width="51.4" height="28" rx="6" fill="rgba(16,185,129,0.22)" stroke="#10b981"/><text x="262.2" y="70.68" font-size="13" fill="#a7f3d0" text-anchor="middle">dbt</text></g><g class="chip" style="animation-delay:0.11s"><rect x="296.9" y="52" width="98.2" height="28" rx="6" fill="rgba(16,185,129,0.22)" stroke="#10b981"/><text x="346" y="70.68" font-size="13" fill="#a7f3d0" text-anchor="middle">Snowflake</text></g><g class="chip" style="animation-delay:0.14s"><rect x="404.1" y="52" width="90.4" height="28" rx="6" fill="rgba(16,185,129,0.22)" stroke="#10b981"/><text x="449.3" y="70.68" font-size="13" fill="#a7f3d0" text-anchor="middle">BigQuery</text></g><g class="chip" style="animation-delay:0.18s"><rect x="503.5" y="52" width="82.6" height="28" rx="6" fill="rgba(16,185,129,0.22)" stroke="#10b981"/><text x="544.8" y="70.68" font-size="13" fill="#a7f3d0" text-anchor="middle">Airflow</text></g><g class="chip" style="animation-delay:0.21s"><rect x="595.1" y="52" width="74.8" height="28" rx="6" fill="rgba(16,185,129,0.22)" stroke="#10b981"/><text x="632.5" y="70.68" font-size="13" fill="#a7f3d0" text-anchor="middle">Docker</text></g><g class="chip" style="animation-delay:0.25s"><rect x="678.9" y="52" width="121.6" height="28" rx="6" fill="rgba(16,185,129,0.22)" stroke="#10b981"/><text x="739.7" y="70.68" font-size="13" fill="#a7f3d0" text-anchor="middle">Google Cloud</text></g><g class="chip" style="animation-delay:0.28s"><rect x="809.5" y="52" width="98.2" height="28" rx="6" fill="rgba(16,185,129,0.22)" stroke="#10b981"/><text x="858.6" y="70.68" font-size="13" fill="#a7f3d0" text-anchor="middle">GitLab CI</text></g><text x="500" y="110" font-size="10.5" fill="#6b7280" text-anchor="middle" letter-spacing="2.4">ANALYSIS &amp; ML</text><g class="chip" style="animation-delay:0.12s"><rect x="267.7" y="128" width="74.8" height="28" rx="6" fill="#0d1117" stroke="#30363d"/><text x="305.1" y="146.68" font-size="13" fill="#34d399" text-anchor="middle">pandas</text></g><g class="chip" style="animation-delay:0.16s"><rect x="351.5" y="128" width="67" height="28" rx="6" fill="#0d1117" stroke="#30363d"/><text x="385" y="146.68" font-size="13" fill="#34d399" text-anchor="middle">NumPy</text></g><g class="chip" style="animation-delay:0.19s"><rect x="427.5" y="128" width="121.6" height="28" rx="6" fill="#0d1117" stroke="#30363d"/><text x="488.3" y="146.68" font-size="13" fill="#34d399" text-anchor="middle">scikit-learn</text></g><g class="chip" style="animation-delay:0.23s"><rect x="558.1" y="128" width="74.8" height="28" rx="6" fill="#0d1117" stroke="#30363d"/><text x="595.5" y="146.68" font-size="13" fill="#34d399" text-anchor="middle">Plotly</text></g><g class="chip" style="animation-delay:0.26s"><rect x="641.9" y="128" width="90.4" height="28" rx="6" fill="#0d1117" stroke="#30363d"/><text x="687.1" y="146.68" font-size="13" fill="#34d399" text-anchor="middle">Power BI</text></g><text x="500" y="186" font-size="10.5" fill="#6b7280" text-anchor="middle" letter-spacing="2.4">LLM INTEGRATION</text><g class="chip" style="animation-delay:0.24s"><rect x="301.8" y="204" width="106" height="28" rx="6" fill="#0d1117" stroke="#30363d"/><text x="354.8" y="222.68" font-size="13" fill="#34d399" text-anchor="middle">Claude API</text></g><g class="chip" style="animation-delay:0.28s"><rect x="416.8" y="204" width="106" height="28" rx="6" fill="#0d1117" stroke="#30363d"/><text x="469.8" y="222.68" font-size="13" fill="#34d399" text-anchor="middle">OpenAI API</text></g><g class="chip" style="animation-delay:0.31s"><rect x="531.8" y="204" width="106" height="28" rx="6" fill="#0d1117" stroke="#30363d"/><text x="584.8" y="222.68" font-size="13" fill="#34d399" text-anchor="middle">Gemini API</text></g><g class="chip" style="animation-delay:0.35s"><rect x="646.8" y="204" width="51.4" height="28" rx="6" fill="#0d1117" stroke="#30363d"/><text x="672.5" y="222.68" font-size="13" fill="#34d399" text-anchor="middle">MCP</text></g><text x="500" y="262" font-size="10.5" fill="#6b7280" text-anchor="middle" letter-spacing="2.4">ALSO BUILD WITH</text><g class="chip" style="animation-delay:0.36s"><rect x="114.7" y="280" width="106" height="28" rx="6" fill="transparent" stroke="#21262d"/><text x="167.7" y="298.68" font-size="13" fill="#6f7b87" text-anchor="middle">TypeScript</text></g><g class="chip" style="animation-delay:0.4s"><rect x="229.7" y="280" width="67" height="28" rx="6" fill="transparent" stroke="#21262d"/><text x="263.2" y="298.68" font-size="13" fill="#6f7b87" text-anchor="middle">React</text></g><g class="chip" style="animation-delay:0.43s"><rect x="305.7" y="280" width="82.6" height="28" rx="6" fill="transparent" stroke="#21262d"/><text x="347" y="298.68" font-size="13" fill="#6f7b87" text-anchor="middle">Next.js</text></g><g class="chip" style="animation-delay:0.47s"><rect x="397.3" y="280" width="82.6" height="28" rx="6" fill="transparent" stroke="#21262d"/><text x="438.6" y="298.68" font-size="13" fill="#6f7b87" text-anchor="middle">FastAPI</text></g><g class="chip" style="animation-delay:0.5s"><rect x="488.9" y="280" width="106" height="28" rx="6" fill="transparent" stroke="#21262d"/><text x="541.9" y="298.68" font-size="13" fill="#6f7b87" text-anchor="middle">PostgreSQL</text></g><g class="chip" style="animation-delay:0.54s"><rect x="603.9" y="280" width="90.4" height="28" rx="6" fill="transparent" stroke="#21262d"/><text x="649.1" y="298.68" font-size="13" fill="#6f7b87" text-anchor="middle">Supabase</text></g><g class="chip" style="animation-delay:0.57s"><rect x="703.3" y="280" width="98.2" height="28" rx="6" fill="transparent" stroke="#21262d"/><text x="752.4" y="298.68" font-size="13" fill="#6f7b87" text-anchor="middle">Terraform</text></g><g class="chip" style="animation-delay:0.61s"><rect x="810.5" y="280" width="74.8" height="28" rx="6" fill="transparent" stroke="#21262d"/><text x="847.9" y="298.68" font-size="13" fill="#6f7b87" text-anchor="middle">Vercel</text></g></g>
</svg>
